#!OML:ASF H:\Terrain\Patient Classification 1\Animal1\Tuesday\Animal1.ASF
:FULLY-SPECIFIED
:DEGREES
2134
root 1.80796 16.5439 -9.22844 -178.378 -126.843 -175.352
lowerback -7.14679 -0.870182 1.71517
upperback -1.45017 -1.34543 1.30311
thorax 2.5009 -0.670866 0.25603
lowerneck -1.06851 1.70001 -5.26461
upperneck 13.6497 1.65672 6.40868
head 4.13009 0.823542 2.8974
rclavicle 2.50904e-014 -7.95139e-016
rhumerus -37.4815 13.0006 -93.3337
rradius 19.0286
rwrist -31.9824
rhand -7.03038 7.16256
rfingers 7.12502
rthumb 18.8416 -21.9449
lclavicle 2.50904e-014 -7.95139e-016
lhumerus -56.1735 47.475 43.6691
lradius 7.83816
lwrist -73.0471
lhand 35.7947 30.7886
lfingers 7.12502
lthumb 58.8273 45.7438
rfemur -14.1161 25.7098 22.8749
rtibia 19.7253
rfoot -11.8696 -43.4313
rtoes 24.5057
lfemur -16.2293 -4.95217 -26.0849
ltibia 24.2118
lfoot -20.1406 32.3737
ltoes 24.59
2135
root 1.80206 16.5555 -9.22119 -178.571 -127.168 -174.898
lowerback -7.13872 -1.09867 1.42082
upperback -1.5275 -1.63074 1.44564
thorax 2.42696 -0.81636 0.542932
lowerneck -0.459062 1.88167 -5.95028
upperneck 13.4629 1.8932 6.56419
head 3.94767 0.903858 3.057
rclavicle 1.4984e-013 -1.11319e-014
rhumerus -37.701 13.258 -93.1683
rradius 19.1095
rwrist -31.8095
rhand -7.26264 7.47586
rfingers 7.12502
rthumb 18.6182 -21.6532
lclavicle 1.4984e-013 -1.11319e-014
lhumerus -57.1306 47.5888 43.1175
lradius 7.86152
lwrist -72.6137
lhand 35.6617 30.913
lfingers 7.12502
lthumb 58.7121 45.9778
rfemur -14.4947 25.8722 22.453
rtibia 20.2667
rfoot -15.259 -43.4638
rtoes 28.106
lfemur -16.1027 -4.83708 -26.5134
ltibia 23.0849
lfoot -20.7087 32.6248
ltoes 27.9762
2136
root 1.79986 16.5648 -9.20526 -178.787 -127.522 -174.361
lowerback -7.18687 -1.2055 1.19519
upperback -1.51865 -1.75664 1.43908
thorax 2.46946 -0.880055 0.649994
lowerneck -0.0445808 1.9313 -6.17275
upperneck 13.0869 1.96832 6.52858
head 3.75883 0.924278 3.07431
rclavicle 1.06167e-013 2.70347e-014
rhumerus -37.5595 12.8893 -92.8396
rradius 19.0153
rwrist -31.395
rhand -7.12327 8.24271
rfingers 7.12502
rthumb 18.7523 -20.8734
lclavicle 1.06167e-013 2.70347e-014
lhumerus -57.5412 47.5442 43.0456
lradius 7.84936
lwrist -72.6545
lhand 35.5233 30.938
lfingers 7.12502
lthumb 58.5921 46.116
rfemur -14.6926 25.8766 21.9225
rtibia 20.3766
rfoot -18.0197 -43.0623
rtoes 31.5906
lfemur -16.1826 -4.99988 -26.9701
ltibia 22.3616
lfoot -22.7072 32.8305
ltoes 33.4083
2137
root 1.80289 16.5728 -9.19078 -178.343 -127.827 -174.595
lowerback -7.11445 -1.27036 1.40761
upperback -1.54447 -1.85966 1.52644
thorax 2.39906 -0.930922 0.613655
lowerneck 0.165544 1.95685 -5.98847
upperneck 12.8054 2.01592 6.35994
head 3.64115 0.947502 2.98631
rclavicle 4.92147e-014 1.27222e-014
rhumerus -37.4 12.6823 -92.6535
rradius 18.9552
rwrist -31.3028
rhand -6.8923 8.37447
rfingers 7.12502
rthumb 18.9744 -20.72
lclavicle 4.92147e-014 1.27222e-014
lhumerus -57.9627 47.4081 42.9016
lradius 7.79394
lwrist -73.0837
lhand 35.4746 30.4997
lfingers 7.12502
lthumb 58.5499 45.7173
rfemur -14.9885 25.9131 21.867
rtibia 20.4945
rfoot -19.3956 -42.8844
rtoes 33.0405
lfemur -16.2949 -5.04811 -26.8827
ltibia 21.6823
lfoot -24.6699 33.5059
ltoes 36.9687
2138
root 1.80422 16.5795 -9.18028 -177.929 -128.184 -174.616
lowerback -7.16719 -1.43431 1.38593
upperback -1.64964 -2.08023 1.6455
thorax 2.32549 -1.04249 0.728728
lowerneck 0.0769402 2.0386 -5.91769
upperneck 12.976 2.12886 6.28219
head 3.70223 1.00314 2.95717
rclavicle 1.28533e-013 -3.18055e-015
rhumerus -37.3586 12.7447 -92.479
rradius 19.0157
rwrist -31.182
rhand -6.73857 7.59271
rfingers 7.12502
rthumb 19.1222 -21.4872
lclavicle 1.28533e-013 -3.18055e-015
lhumerus -58.511 47.4256 42.5459
lradius 7.75941
lwrist -72.8536
lhand 35.6144 30.3124
lfingers 7.12502
lthumb 58.6711 45.4159
rfemur -15.4696 25.7776 21.6415
rtibia 20.6374
rfoot -18.1366 -43.3269
rtoes 30.9471
lfemur -16.4041 -5.03317 -26.9016
ltibia 21
lfoot -26.5849 33.5791
ltoes 40.4587
2139
root 1.80084 16.5909 -9.16496 -177.794 -128.599 -174.124
lowerback -7.49881 -1.59748 1.08905
upperback -1.74716 -2.28214 1.65785
thorax 2.42214 -1.14492 0.881191
lowerneck -0.13363 2.09568 -6.07411
upperneck 13.1524 2.2017 6.41767
head 3.78145 1.04042 3.03212
rclavicle 5.82936e-014 -2.62396e-014
rhumerus -37.2419 12.4293 -92.0776
rradius 19.0224
rwrist -30.6491
rhand -6.71954 6.95807
rfingers 7.12502
rthumb 19.1405 -22.1201
lclavicle 5.82936e-014 -2.62396e-014
lhumerus -58.7333 47.4778 42.3868
lradius 7.70311
lwrist -72.055
lhand 35.2916 30.6884
lfingers 7.12502
lthumb 58.3909 46.0538
rfemur -16.0276 25.4692 21.0157
rtibia 20.6974
rfoot -18.7044 -43.2084
rtoes 31.4346
lfemur -16.6115 -5.19679 -27.2335
ltibia 20.4852
lfoot -26.4904 34.2912
ltoes 42.1524
2140
root 1.79143 16.5988 -9.1441 -177.43 -128.893 -174.036
lowerback -7.83717 -1.64483 0.991974
upperback -1.78582 -2.34777 1.74165
thorax 2.5783 -1.17837 1.00602
lowerneck -0.242444 2.0997 -6.06221
upperneck 12.9891 2.22507 6.40245
head 3.74937 1.05601 3.02497
rclavicle -2.87989e-014 1.90833e-014
rhumerus -37.0431 11.9323 -91.5368
rradius 18.9158
rwrist -30.1641
rhand -6.42877 6.78131
rfingers 7.12502
rthumb 19.4201 -22.2689
lclavicle -2.87989e-014 1.90833e-014
lhumerus -58.8384 47.3486 42.4208
lradius 7.69139
lwrist -71.374
lhand 34.9614 31.1793
lfingers 7.12502
lthumb 58.1036 46.8074
rfemur -16.4618 25.4077 20.6828
rtibia 20.736
rfoot -22.5078 -42.2448
rtoes 36.2072
lfemur -16.6407 -5.27373 -27.2845
ltibia 19.9907
lfoot -25.0932 35.5332
ltoes 41.769
2141
root 1.7778 16.6011 -9.12288 -176.838 -128.926 -174.377
lowerback -8.05937 -1.61575 1.05659
upperback -1.85547 -2.32717 1.95447
thorax 2.63594 -1.16922 1.186
lowerneck -0.341479 2.11979 -5.9171
upperneck 12.9962 2.27974 6.16463
head 3.77083 1.08111 2.93069
rclavicle -6.05424e-014 -9.54166e-015
rhumerus -37.0238 11.8228 -91.1489
rradius 18.8212
rwrist -30.0382
rhand -5.94649 6.98176
rfingers 7.12502
rthumb 19.8838 -22.0211
lclavicle -6.05424e-014 -9.54166e-015
lhumerus -59.257 47.1325 42.3023
lradius 7.78319
lwrist -70.9762
lhand 35.2795 30.9176
lfingers 7.12502
lthumb 58.3804 46.2927
rfemur -16.7288 25.5232 20.7207
rtibia 20.6643
rfoot -23.1591 -42.0038
rtoes 37.2282
lfemur -16.5224 -5.24053 -27.0052
ltibia 19.506
lfoot -25.8417 35.8423
ltoes 41.6802
2142
root 1.76712 16.607 -9.10666 -176.272 -128.955 -174.673
lowerback -8.25474 -1.65308 1.12376
upperback -1.95499 -2.393 2.12322
thorax 2.64704 -1.20321 1.31166
lowerneck -0.376613 2.1939 -5.89045
upperneck 13.1043 2.38084 6.1178
head 3.80424 1.12967 2.9168
rclavicle 1.2275e-014 1.27222e-014
rhumerus -37.1563 12.213 -91.1502
rradius 18.8328
rwrist -30.2922
rhand -5.98724 7.15399
rfingers 7.12502
rthumb 19.8446 -21.8529
lclavicle 1.2275e-014 1.27222e-014
lhumerus -59.8262 47.0213 41.9096
lradius 7.90137
lwrist -70.7804
lhand 36.1154 30.5814
lfingers 7.12502
lthumb 59.1045 45.2686
rfemur -16.9157 25.5663 20.7424
rtibia 20.3784
rfoot -20.5066 -42.6863
rtoes 34.3319
lfemur -16.588 -5.2898 -26.7477
ltibia 19.1933
lfoot -25.5021 36.1732
ltoes 39.962
2143
root 1.75789 16.6143 -9.09207 -175.824 -129.332 -174.826
lowerback -8.52675 -1.75058 1.17943
upperback -1.98061 -2.5364 2.17558
thorax 2.77379 -1.27435 1.31138
lowerneck -0.0799202 2.17057 -5.69213
upperneck 12.3736 2.39218 5.82488
head 3.94838 1.10927 3.06765
rclavicle 9.24349e-015 3.81667e-014
rhumerus -37.1109 12.2707 -91.124
rradius 18.8548
rwrist -30.4914
rhand -5.99468 7.19288
rfingers 7.12502
rthumb 19.8375 -21.8147
lclavicle 9.24349e-015 3.81667e-014
lhumerus -59.9705 46.8851 41.7535
lradius 7.993
lwrist -70.8089
lhand 37.1015 30.5957
lfingers 7.12502
lthumb 59.9521 44.4261
rfemur -16.971 25.5929 20.6585
rtibia 19.8991
rfoot -19.1098 -43.2872
rtoes 32.9296
lfemur -16.8368 -5.48625 -26.6375
ltibia 19.0835
lfoot -22.2096 36.6453
ltoes 35.9635
